<svg width="59" height="47" viewBox="0 0 59 47" fill="none" xmlns="http://www.w3.org/2000/svg">
<path d="M41.6514 14.7862C41.3916 14.4233 41.043 14.2418 40.6055 14.2418H12.7559L12 12.274C11.8086 11.6289 11.5488 11.0778 11.2207 10.6208C10.8926 10.1638 10.5439 9.84123 10.1748 9.65306C9.80566 9.46489 9.48438 9.3372 9.21094 9.27C8.9375 9.20279 8.66406 9.16919 8.39062 9.16919H2.77148C2.41602 9.16919 2.11523 9.29016 1.86914 9.53209C1.62305 9.77403 1.5 10.0832 1.5 10.4595C1.5 10.6746 1.55469 10.8829 1.66406 11.0845C1.77344 11.2861 1.93066 11.4407 2.13574 11.5482C2.34082 11.6557 2.55273 11.7095 2.77148 11.7095H8.39062C8.5 11.7095 8.60254 11.723 8.69824 11.7498C8.79395 11.7767 8.92383 11.891 9.08789 12.0926C9.25195 12.2942 9.38867 12.5966 9.49805 12.9998L15.3809 29.1531C15.4355 29.3144 15.5244 29.4689 15.6475 29.6168C15.7705 29.7646 15.9141 29.8789 16.0781 29.9595C16.2422 30.0402 16.4199 30.0805 16.6113 30.0805H34.3301C34.6035 30.0805 34.8564 29.9998 35.0889 29.8385C35.3213 29.6773 35.4785 29.4756 35.5605 29.2337L41.8359 15.9757C41.9727 15.5456 41.9111 15.1491 41.6514 14.7862ZM33.4277 27.4998H17.6367L13.4531 16.8225H38.7188L33.4277 27.4998ZM31.0625 31.4798C30.1602 31.4798 29.3877 31.7957 28.7451 32.4274C28.1025 33.0591 27.7812 33.8186 27.7812 34.7057C27.7812 35.5928 28.1025 36.3522 28.7451 36.9839C29.3877 37.6156 30.1602 37.9315 31.0625 37.9315C31.9648 37.9315 32.7373 37.6156 33.3799 36.9839C34.0225 36.3522 34.3438 35.5928 34.3438 34.7057C34.3438 33.8186 34.0225 33.0591 33.3799 32.4274C32.7373 31.7957 31.9648 31.4798 31.0625 31.4798ZM19.25 31.4798C18.6484 31.4798 18.0947 31.6277 17.5889 31.9234C17.083 32.2191 16.6865 32.6089 16.3994 33.0927C16.1123 33.5766 15.9688 34.1143 15.9688 34.7057C15.9688 35.5928 16.29 36.3522 16.9326 36.9839C17.5752 37.6156 18.3477 37.9315 19.25 37.9315C20.1523 37.9315 20.9248 37.6156 21.5674 36.9839C22.21 36.3522 22.5312 35.5928 22.5312 34.7057C22.5312 34.4906 22.5107 34.2755 22.4697 34.0605C22.4287 33.8454 22.3672 33.6438 22.2852 33.4557C22.2031 33.2675 22.1006 33.086 21.9775 32.9113C21.8545 32.7366 21.7178 32.5753 21.5674 32.4274C21.417 32.2796 21.2529 32.1452 21.0752 32.0242C20.8975 31.9032 20.7129 31.8024 20.5215 31.7218C20.3301 31.6411 20.125 31.5806 19.9062 31.5403C19.6875 31.5 19.4688 31.4798 19.25 31.4798Z" fill="#3F4E65"/>
<circle cx="45" cy="14" r="12.5" fill="#FFC85E" stroke="white" stroke-width="3"/>
<path d="M44.9745 19.1392C47.2615 19.1392 48.8971 17.8814 48.8921 16.1413C48.8971 14.8736 48.0917 13.9688 46.5953 13.7798V13.7003C47.7338 13.4964 48.5193 12.6911 48.5143 11.5476C48.5193 9.94176 47.1123 8.67898 45.0044 8.67898C42.9163 8.67898 41.3453 9.90199 41.3154 11.6619H43.3786C43.4035 10.8864 44.1144 10.3842 44.9944 10.3842C45.8644 10.3842 46.4461 10.9112 46.4411 11.6768C46.4461 12.4773 45.765 13.0192 44.7856 13.0192H43.836V14.6001H44.7856C45.939 14.6001 46.6599 15.1768 46.6549 15.9972C46.6599 16.8075 45.9639 17.3643 44.9795 17.3643C44.0299 17.3643 43.319 16.8672 43.2792 16.1214H41.1116C41.1464 17.9013 42.7373 19.1392 44.9745 19.1392Z" fill="white"/>
</svg>
