<svg width="25" height="26" viewBox="0 0 25 26" fill="none" xmlns="http://www.w3.org/2000/svg">
<path d="M15.625 6.25195H20.3125C20.5197 6.25195 20.7184 6.33426 20.8649 6.48078C21.0114 6.62729 21.0938 6.826 21.0938 7.0332C21.0938 7.2404 21.0114 7.43912 20.8649 7.58563C20.7184 7.73214 20.5197 7.81445 20.3125 7.81445H19.4484L18.2734 18.402C18.1673 19.3575 17.7125 20.2403 16.9961 20.8815C16.2797 21.5226 15.352 21.8771 14.3906 21.877H10.6094C9.64797 21.8771 8.72029 21.5226 8.00389 20.8815C7.28749 20.2403 6.8327 19.3575 6.72656 18.402L5.55 7.81445H4.6875C4.4803 7.81445 4.28159 7.73214 4.13507 7.58563C3.98856 7.43912 3.90625 7.2404 3.90625 7.0332C3.90625 6.826 3.98856 6.62729 4.13507 6.48078C4.28159 6.33426 4.4803 6.25195 4.6875 6.25195H9.375C9.375 5.42315 9.70424 4.6283 10.2903 4.04224C10.8763 3.45619 11.6712 3.12695 12.5 3.12695C13.3288 3.12695 14.1237 3.45619 14.7097 4.04224C15.2958 4.6283 15.625 5.42315 15.625 6.25195ZM12.5 4.68945C12.0856 4.68945 11.6882 4.85407 11.3951 5.1471C11.1021 5.44012 10.9375 5.83755 10.9375 6.25195H14.0625C14.0625 5.83755 13.8979 5.44012 13.6049 5.1471C13.3118 4.85407 12.9144 4.68945 12.5 4.68945ZM10.1562 10.9395V17.1895C10.1562 17.3967 10.2386 17.5954 10.3851 17.7419C10.5316 17.8884 10.7303 17.9707 10.9375 17.9707C11.1447 17.9707 11.3434 17.8884 11.4899 17.7419C11.6364 17.5954 11.7188 17.3967 11.7188 17.1895V10.9395C11.7188 10.7323 11.6364 10.5335 11.4899 10.387C11.3434 10.2405 11.1447 10.1582 10.9375 10.1582C10.7303 10.1582 10.5316 10.2405 10.3851 10.387C10.2386 10.5335 10.1562 10.7323 10.1562 10.9395ZM14.0625 10.1582C13.8553 10.1582 13.6566 10.2405 13.5101 10.387C13.3636 10.5335 13.2812 10.7323 13.2812 10.9395V17.1895C13.2812 17.3967 13.3636 17.5954 13.5101 17.7419C13.6566 17.8884 13.8553 17.9707 14.0625 17.9707C14.2697 17.9707 14.4684 17.8884 14.6149 17.7419C14.7614 17.5954 14.8438 17.3967 14.8438 17.1895V10.9395C14.8438 10.7323 14.7614 10.5335 14.6149 10.387C14.4684 10.2405 14.2697 10.1582 14.0625 10.1582Z" fill="white"/>
</svg>
